Documentary about Domingos Albino Ferreira, aka Dominguinhos da Pedra, a man who's been living alone for 41 years in caves in the State of Minas Gerais, Brazil.
 
http://www.imdb.com/title/tt0405677/

-----------------------------------------------------------------------------------

Subtitles included (.srt): English / Spanish / Portuguese-BR

-----------------------------------------------------------------------------------

Poster: http://imageshack.us/a/img641/4438/posteralmadoosso.jpg

Screenshots: 
http://imageshack.us/a/img821/4075/alma2q.jpg 
http://imageshack.us/a/img29/9206/alma4f.jpg 
http://imageshack.us/a/img690/3390/alma5q.jpg 
http://imageshack.us/a/img825/228/alma6.jpg 
http://imageshack.us/a/img22/9934/alma7.jpg

-----------------------------------------------------------------------------------

Format                                   : AVI
Format/Info                              : Audio Video Interleave
File size                                : 1.37 GiB
Duration                                 : 1h 15mn
Overall bit rate                         : 2 587 Kbps
Writing application                      : VirtualDubMod 1.5.4.1 (build 2178/release)
Writing library                          : VirtualDubMod build 2178/release

Video
ID                                       : 0
Format                                   : MPEG-4 Visual
Format profile                           : Advanced Simple@L5
Format settings, BVOP                    : No
Format settings, QPel                    : No
Format settings, GMC                     : No warppoints
Format settings, Matrix                  : Custom
Codec ID                                 : XVID
Codec ID/Hint                            : XviD
Duration                                 : 1h 15mn
Bit rate                                 : 2 388 Kbps
Width                                    : 720 pixels
Height                                   : 416 pixels
Display aspect ratio                     : 1.731
Frame rate                               : 23.976 fps
Color space                              : YUV
Chroma subsampling                       : 4:2:0
Bit depth                                : 8 bits
Scan type                                : Progressive
Compression mode                         : Lossy
Bits/(Pixel*Frame)                       : 0.333
Stream size                              : 1.26 GiB (92%)
Writing library                          : XviD 1.2.1 (UTC 2008-12-04)

Audio
ID                                       : 1
Format                                   : AC-3
Format/Info                              : Audio Coding 3
Mode extension                           : CM (complete main)
Format settings, Endianness              : Big
Codec ID                                 : 2000
Duration                                 : 1h 15mn
Bit rate mode                            : Constant
Bit rate                                 : 192 Kbps
Channel(s)                               : 2 channels
Channel positions                        : Front: L R
Sampling rate                            : 48.0 KHz
Bit depth                                : 16 bits
Compression mode                         : Lossy
Stream size                              : 104 MiB (7%)
Alignment                                : Split accross interleaves
Interleave, duration                     : 96 ms (2.30 video frames)
Interleave, preload duration             : 96 ms

